<svg width="72" height="72" viewBox="0 0 72 72" fill="none" xmlns="http://www.w3.org/2000/svg">
<g clip-path="url(#clip0_16645_7296)">
<path d="M64.1845 41.0097C63.767 40.2816 63.4854 39.7767 63.068 39.0486C63.301 37.0389 63.301 34.9903 63.068 32.9418C63.4854 32.2136 63.767 31.7088 64.1845 30.9806L69.9417 28.5923C70.3301 27.6408 70.5534 27.1165 70.9514 26.1651L67.6602 18.2233C66.7087 17.835 66.1845 17.6117 65.233 17.2233L59.4757 19.6117C58.6602 19.3884 58.1068 19.2428 57.301 19.0195C56.0194 17.4078 54.5631 15.9612 52.9806 14.7088C52.7573 13.8932 52.6116 13.3398 52.3883 12.534L54.7767 6.76703C54.3883 5.81557 54.165 5.2913 53.7767 4.33985L45.8349 1.04858C44.8835 1.43693 44.3592 1.66023 43.4078 2.05829L41.0194 7.82528C40.2913 8.24276 39.7864 8.52431 39.0582 8.94179C37.0485 8.70878 35 8.70878 32.9514 8.94179C32.2233 8.52431 31.7184 8.24276 30.9903 7.82528L28.6019 2.068C27.6505 1.67965 27.1262 1.45635 26.1748 1.05829L18.233 4.34955C17.8447 5.30101 17.6214 5.82528 17.2233 6.77674L19.6116 12.534C19.3883 13.3496 19.2427 13.903 19.0194 14.7088C17.4078 15.9903 15.9612 17.4466 14.7087 19.0292C13.8932 19.2525 13.3398 19.3981 12.534 19.6214L6.76698 17.233C5.81553 17.6214 5.29126 17.8447 4.3398 18.233L1.04854 26.1748C1.43689 27.1263 1.66019 27.6505 2.04854 28.602L7.81553 30.9903C8.233 31.7185 8.51456 32.2233 8.93203 32.9515C8.69902 34.9612 8.69902 37.0097 8.93203 39.0583C8.51456 39.7864 8.233 40.2913 7.81553 41.0195L2.05825 43.4078C1.6699 44.3593 1.4466 44.8835 1.05825 45.835L4.34951 53.7767C5.30097 54.1651 5.82524 54.3884 6.77669 54.7767L12.534 52.3884C13.3495 52.6117 13.9029 52.7573 14.7087 52.9806C15.9903 54.5923 17.4466 56.0389 19.0291 57.2913C19.2524 58.1068 19.3981 58.6602 19.6214 59.4661L17.233 65.233C17.6214 66.1845 17.8447 66.7088 18.2427 67.6602L26.1845 70.9515C27.1359 70.5631 27.6602 70.3398 28.6116 69.9418L31 64.1748C31.7281 63.7573 32.233 63.4758 32.9612 63.0583C34.9709 63.2913 37.0194 63.2913 39.068 63.0583C39.7961 63.4758 40.301 63.7573 41.0291 64.1748L43.4175 69.9321C44.3689 70.3204 44.8932 70.5437 45.8447 70.9418L53.7864 67.6505C54.1748 66.6991 54.398 66.1748 54.7961 65.2233L52.4078 59.4661C52.6311 58.6505 52.7767 58.0971 53 57.2913C54.6116 56.0097 56.0582 54.5534 57.3107 52.9709C58.1262 52.7476 58.6796 52.602 59.4854 52.3787L65.2524 54.767C66.2039 54.3787 66.7281 54.1554 67.6796 53.767L70.9709 45.8253C70.5825 44.8738 70.3592 44.3496 69.9709 43.3981L64.2039 41.0097H64.1845ZM35.6214 54.9806C24.932 54.9806 16.2621 46.3107 16.2621 35.6214C16.2621 24.9321 24.932 16.2622 35.6214 16.2622C46.3107 16.2622 54.9806 24.9321 54.9806 35.6214C54.9806 46.3107 46.3107 54.9806 35.6214 54.9806V54.9806Z" stroke="#00B7FF" stroke-width="2" stroke-miterlimit="10"/>
<path d="M23.1748 40.6796C22.6699 40.6796 22.3107 40.5049 22.068 40.1651C21.835 39.8253 21.835 39.3981 22.068 38.8835L26.0485 30.3107C26.2427 29.8932 26.4757 29.5922 26.7476 29.3981C27.0291 29.2039 27.3495 29.1068 27.7184 29.1068C28.0874 29.1068 28.3981 29.2039 28.6796 29.3981C28.9612 29.5922 29.1942 29.8932 29.3786 30.3107L33.3592 38.8835C33.6019 39.4078 33.6117 39.835 33.3883 40.1748C33.165 40.5146 32.8155 40.6796 32.3301 40.6796C31.9029 40.6796 31.5728 40.5825 31.3495 40.3884C31.1165 40.1942 30.9126 39.8835 30.7379 39.4563L30.2233 38.2427H25.1845L24.6699 39.4563C24.4757 39.8835 24.2816 40.1942 24.0777 40.3884C23.8738 40.5825 23.5631 40.6796 23.1456 40.6796H23.1748ZM27.699 32.3301L26.165 35.9903H29.2621L27.7282 32.3301H27.699Z" fill="#69CC00"/>
<path d="M36.3107 40.6796C35.8447 40.6796 35.4757 40.5534 35.2233 40.2913C34.9709 40.0388 34.8349 39.6699 34.8349 39.1845V30.7476C34.8349 30.2719 34.9612 29.9029 35.2233 29.6408C35.4854 29.3787 35.8447 29.2524 36.3301 29.2524H40.2621C41.5437 29.2524 42.534 29.5825 43.2233 30.233C43.9126 30.8835 44.2718 31.7961 44.2718 32.9418C44.2718 34.0874 43.9223 35 43.2233 35.6505C42.5243 36.301 41.534 36.6311 40.2621 36.6311H37.7864V39.1748C37.7864 39.6505 37.6602 40.0194 37.4078 40.2816C37.1553 40.534 36.7961 40.6699 36.3107 40.6699V40.6796ZM37.7864 34.3981H39.7573C40.9126 34.3981 41.4854 33.9223 41.4854 32.9612C41.4854 32 40.9126 31.5243 39.7573 31.5243H37.7864V34.3981Z" fill="#69CC00"/>
<path d="M47.1262 40.6797C46.6602 40.6797 46.2913 40.5535 46.0388 40.2913C45.7864 40.0389 45.6505 39.6603 45.6505 39.1748V30.6214C45.6505 30.136 45.7767 29.7574 46.0388 29.5049C46.2913 29.2525 46.6602 29.1166 47.1262 29.1166C47.5922 29.1166 47.9612 29.2428 48.2136 29.5049C48.466 29.7574 48.6019 30.136 48.6019 30.6214V39.1748C48.6019 39.67 48.4757 40.0389 48.2233 40.2913C47.9709 40.5438 47.6116 40.6797 47.1262 40.6797Z" fill="#69CC00"/>
</g>
<defs>
<clipPath id="clip0_16645_7296">
<rect width="72" height="72" fill="white"/>
</clipPath>
</defs>
</svg>
