<svg width="30" height="30" viewBox="0 0 30 30" fill="none" xmlns="http://www.w3.org/2000/svg">
<g clip-path="url(#clip0_19811_21585)">
<path d="M16.8929 5.51961L17.6303 1.422" stroke="#010205" stroke-width="1.77" stroke-linecap="square"/>
<path d="M20.2848 4.07655L17.7146 0.9375L14.2174 2.98104" stroke="#010205" stroke-width="1.77" stroke-linecap="square" stroke-linejoin="round"/>
<path d="M13.8171 23.0163L14.5334 18.9186" stroke="#010205" stroke-width="1.77" stroke-linecap="square"/>
<path d="M17.2091 21.552L14.6178 18.4235L11.1312 20.4776" stroke="#010205" stroke-width="1.77" stroke-linecap="square" stroke-linejoin="round"/>
<path d="M15.3023 14.5577L16.0186 10.4601" stroke="#010205" stroke-width="1.77" stroke-linecap="square"/>
<path d="M18.6944 13.104L16.1136 9.98602L12.627 12.0296" stroke="#010205" stroke-width="1.77" stroke-linecap="square" stroke-linejoin="round"/>
<path d="M12.8797 30.0105C13.8279 30.0105 14.5966 29.2417 14.5966 28.2935C14.5966 27.3452 13.8279 26.5765 12.8797 26.5765C11.9314 26.5765 11.1627 27.3452 11.1627 28.2935C11.1627 29.2417 11.9314 30.0105 12.8797 30.0105Z" fill="#010205"/>
<path d="M8.01304 22.658L4.86346 24.849" stroke="#010205" stroke-width="1.68" stroke-linecap="square"/>
<path d="M8.20265 26.2078L4.48425 25.1123L4.75813 21.2465" stroke="#010205" stroke-width="1.68" stroke-linecap="square" stroke-linejoin="round"/>
<path d="M19.4528 24.7121L21.6438 27.8722" stroke="#010205" stroke-width="1.68" stroke-linecap="square"/>
<path d="M18.0412 27.967L21.9071 28.2304L23.0026 24.533" stroke="#010205" stroke-width="1.68" stroke-linecap="square" stroke-linejoin="round"/>
<path d="M23.0447 18.297L26.9001 18.9922" stroke="#010205" stroke-width="1.72" stroke-linecap="square"/>
<path d="M24.3719 21.6678L27.3635 19.066L25.4779 15.6004" stroke="#010205" stroke-width="1.72" stroke-linecap="square" stroke-linejoin="round"/>
<path d="M21.9175 10.6496L25.3515 8.75354" stroke="#010205" stroke-width="1.72" stroke-linecap="square"/>
<path d="M22.1072 7.0155L25.7624 8.53236L25.0777 12.4193" stroke="#010205" stroke-width="1.72" stroke-linecap="square" stroke-linejoin="round"/>
<path d="M6.77011 15.4319L2.90424 14.7578" stroke="#010205" stroke-width="1.72" stroke-linecap="square"/>
<path d="M4.35793 18.1391L2.4408 14.6735L5.40077 12.0612" stroke="#010205" stroke-width="1.72" stroke-linecap="square" stroke-linejoin="round"/>
<path d="M10.4358 8.61655L7.85504 5.66711" stroke="#010205" stroke-width="1.72" stroke-linecap="square"/>
<path d="M11.4997 5.15094L7.54959 5.31948L6.85437 9.20642" stroke="#010205" stroke-width="1.72" stroke-linecap="square" stroke-linejoin="round"/>
</g>
<defs>
<clipPath id="clip0_19811_21585">
<rect width="30" height="30" fill="white"/>
</clipPath>
</defs>
</svg>
