<svg width="30" height="30" viewBox="0 0 30 30" fill="none" xmlns="http://www.w3.org/2000/svg">
<g clip-path="url(#clip0_18765_12345)">
<mask id="mask0_18765_12345" style="mask-type:luminance" maskUnits="userSpaceOnUse" x="0" y="2" width="31" height="26">
<path d="M30.0884 2.05685H0.0020752V27.8404H30.0884V2.05685Z" fill="white"/>
</mask>
<g mask="url(#mask0_18765_12345)">
<path d="M28.9048 21.9349C27.3021 22.7733 18.9843 26.1945 17.1925 27.1336C15.4007 28.0726 14.4411 28.0459 13.0397 27.376C11.6384 26.7062 2.81714 23.1185 1.21851 22.3541C0.413034 21.976 0.0020752 21.6534 0.0020752 21.3514V18.3082C0.0020752 18.3082 11.5254 15.8075 13.385 15.1336C15.2445 14.4596 15.8877 14.4432 17.4678 15.0226C19.048 15.6021 28.5206 17.3117 30.0843 17.8788V20.8788C30.0843 21.1911 29.7247 21.4952 28.9048 21.9329V21.9349Z" fill="#A32422"/>
<path d="M28.9048 18.9062C27.3021 19.7404 18.9842 23.1616 17.1925 24.0842C15.4007 25.0068 14.4411 24.9986 13.0397 24.3308C11.6384 23.663 2.81712 20.0753 1.21849 19.3171C-0.380141 18.5589 -0.410963 18.0288 1.15685 17.4164C2.72465 16.8041 11.5253 13.3582 13.3849 12.6801C15.2445 12.0021 15.8877 11.9877 17.4678 12.5692C19.0479 13.1507 27.3308 16.4404 28.8863 17.0137C30.4418 17.587 30.5137 18.0575 28.9048 18.8897V18.9062Z" fill="#DC382C"/>
<path d="M28.9048 16.9788C27.3021 17.8151 18.9843 21.2342 17.1925 22.1568C15.4007 23.0795 14.4493 23.0712 13.048 22.3993C11.6466 21.7274 2.81714 18.1603 1.21851 17.3979C0.413034 17.0158 0.0020752 16.6952 0.0020752 16.3911V13.3582C0.0020752 13.3582 11.5254 10.8493 13.385 10.1753C15.2445 9.50137 15.8877 9.48288 17.4678 10.0705C19.048 10.6582 28.5206 12.3514 30.0843 12.9226V15.9226C30.0843 16.2349 29.7247 16.5473 28.9048 16.9788Z" fill="#A32422"/>
<path d="M28.9047 13.9356C27.302 14.774 18.9842 18.1932 17.1924 19.1158C15.4006 20.0384 14.441 20.0322 13.0397 19.3623C11.6383 18.6925 2.81707 15.1192 1.21844 14.3548C-0.38019 13.5904 -0.408957 13.0706 1.1568 12.4582C2.72255 11.8459 11.5253 8.39179 13.3849 7.7322C15.2445 7.07261 15.8876 7.03151 17.4678 7.6048C19.0479 8.17809 27.3308 11.4966 28.8863 12.0534C30.4417 12.6103 30.5136 13.0993 28.9047 13.9295V13.9356Z" fill="#DC382C"/>
<path d="M28.9048 11.8356C27.3021 12.674 18.9843 16.0952 17.1925 17.0158C15.4007 17.9363 14.4493 17.9301 13.048 17.2623C11.6466 16.5945 2.81714 13.0171 1.21851 12.2548C0.413034 11.8767 0.0020752 11.5541 0.0020752 11.25V8.20685C0.0020752 8.20685 11.5254 5.70617 13.385 5.03425C15.2445 4.36233 15.8877 4.34178 17.4678 4.92124C19.048 5.50069 28.5165 7.21028 30.0802 7.78151V10.7815C30.0843 11.0979 29.7247 11.4062 28.9048 11.8356Z" fill="#A32422"/>
<path d="M28.9048 8.79658C27.3021 9.61849 18.9842 13.0603 17.1925 13.9747C15.4007 14.889 14.4411 14.887 13.0397 14.2212C11.6384 13.5555 2.81712 9.97397 1.21849 9.2137C-0.380141 8.45343 -0.410963 7.92534 1.15685 7.31301C2.72465 6.70069 11.5253 3.24863 13.3849 2.57877C15.2445 1.90891 15.8877 1.88836 17.4678 2.46781C19.0479 3.04726 27.3308 6.3411 28.8863 6.91233C30.4418 7.48356 30.5137 7.95822 28.9048 8.79041V8.79658Z" fill="#DC382C"/>
</g>
<path d="M15.5158 4.47535L17.5007 3.82398L16.9623 5.11028L18.9822 5.86645L16.3788 6.13768L15.7932 7.54316L14.8521 5.97535L11.8418 5.70412L14.0897 4.89453L13.4137 3.64932L15.5158 4.47535Z" fill="white"/>
<path d="M15.6411 12.6801L10.7754 10.6603L17.7453 9.58972L15.6411 12.6801Z" fill="white"/>
<path d="M8.89524 6.64726C10.95 6.64726 12.6206 7.29452 12.6206 8.08562C12.6206 8.87671 10.9459 9.52397 8.89524 9.52397C6.84456 9.52397 5.16785 8.87671 5.16785 8.08562C5.16785 7.29452 6.83839 6.64726 8.89524 6.64726Z" fill="white"/>
<path d="M22.0664 6.25069L26.1904 7.88014L22.0705 9.50959L22.0664 6.25069Z" fill="#741113"/>
<path d="M22.0665 6.25069L22.0706 9.50959L21.6227 9.68425L17.5007 8.0548L22.0665 6.25069Z" fill="#AC2724"/>
</g>
<defs>
<clipPath id="clip0_18765_12345">
<rect width="30" height="30" fill="white"/>
</clipPath>
</defs>
</svg>
